<svg width="15" height="14" viewBox="0 0 15 14" fill="none" xmlns="http://www.w3.org/2000/svg">
<path d="M12.0416 11C11.2553 11 10.6249 11.5933 10.6249 12.3333C10.6249 12.6869 10.7742 13.0261 11.0399 13.2761C11.3055 13.5262 11.6659 13.6666 12.0416 13.6666C12.4173 13.6666 12.7776 13.5262 13.0433 13.2761C13.309 13.0261 13.4583 12.6869 13.4583 12.3333C13.4583 11.9797 13.309 11.6406 13.0433 11.3905C12.7776 11.1405 12.4173 11 12.0416 11ZM0.708252 0.333313V1.66665H2.12492L4.67492 6.72665L3.71159 8.35998C3.60534 8.54665 3.54159 8.76665 3.54159 8.99998C3.54159 9.3536 3.69084 9.69274 3.95652 9.94279C4.22219 10.1928 4.58253 10.3333 4.95825 10.3333H13.4583V8.99998H5.25575C5.20879 8.99998 5.16374 8.98242 5.13054 8.95116C5.09733 8.91991 5.07867 8.87752 5.07867 8.83331C5.07867 8.79998 5.08575 8.77331 5.09992 8.75331L5.73742 7.66665H11.0145C11.5458 7.66665 12.0133 7.38665 12.2541 6.97998L14.7899 2.66665C14.8395 2.55998 14.8749 2.44665 14.8749 2.33331C14.8749 2.1565 14.8003 1.98693 14.6675 1.86191C14.5346 1.73688 14.3544 1.66665 14.1666 1.66665H3.69034L3.0245 0.333313M4.95825 11C4.172 11 3.54159 11.5933 3.54159 12.3333C3.54159 12.6869 3.69084 13.0261 3.95652 13.2761C4.22219 13.5262 4.58253 13.6666 4.95825 13.6666C5.33398 13.6666 5.69431 13.5262 5.95999 13.2761C6.22566 13.0261 6.37492 12.6869 6.37492 12.3333C6.37492 11.9797 6.22566 11.6406 5.95999 11.3905C5.69431 11.1405 5.33398 11 4.95825 11Z" fill="white"/>
</svg>
