<svg width="27" height="28" viewBox="0 0 27 28" fill="none" xmlns="http://www.w3.org/2000/svg">
<path d="M13.5 14C11.6437 14 10.0547 13.3146 8.73281 11.9437C7.41094 10.5729 6.75 8.925 6.75 7C6.75 5.075 7.41094 3.42708 8.73281 2.05625C10.0547 0.685417 11.6437 0 13.5 0C15.3562 0 16.9453 0.685417 18.2672 2.05625C19.5891 3.42708 20.25 5.075 20.25 7C20.25 8.925 19.5891 10.5729 18.2672 11.9437C16.9453 13.3146 15.3562 14 13.5 14ZM0 28V23.1C0 22.1083 0.246375 21.1972 0.739125 20.3665C1.23188 19.5358 1.8855 18.9012 2.7 18.4625C4.44375 17.5583 6.21562 16.8805 8.01562 16.429C9.81562 15.9775 11.6437 15.7512 13.5 15.75C15.3562 15.7488 17.1844 15.9752 18.9844 16.429C20.7844 16.8828 22.5562 17.5607 24.3 18.4625C25.1156 18.9 25.7698 19.5347 26.2626 20.3665C26.7553 21.1983 27.0011 22.1095 27 23.1V28H0Z" fill="#193046"/>
</svg>
